<svg width="30" height="30" viewBox="0 0 30 30" fill="none" xmlns="http://www.w3.org/2000/svg">
    <path d="M25.0515 30C23.8144 30 22.5773 29.0769 21.6495 27.6923L18.2474 21.2308H11.134L9.27835 25.8462C8.35051 28.1538 6.80412 30 4.94845 30C2.16495 30 0 26.7692 0 22.6154V21.6923V20.7692L1.23711 8.76923C1.54639 3.69231 4.02062 0 7.42268 0C8.96907 0 10.8247 0.923076 11.7526 2.76923C12.9897 2.76923 16.0825 2.30769 17.9381 2.76923C19.1753 0.923076 20.7216 0.461538 22.268 0.461538C24.7423 0.461538 26.9072 2.76923 27.8351 6.46154V7.38461L29.6907 20.3077C29.6907 20.7692 30 21.6923 30 22.6154C30 26.3077 27.8351 30 25.0515 30Z" fill="#92A7FD"/>
    <path d="M24.7423 12.4617C24.1237 12.4617 23.8144 11.5386 23.8144 11.077C23.8144 10.6155 24.1237 9.69242 24.7423 9.69242C25.3608 9.69242 25.6701 10.6155 25.6701 11.077C25.6701 11.5386 25.3608 12.4617 24.7423 12.4617ZM19.4845 12.4617C18.866 12.4617 18.5567 11.5386 18.5567 11.077C18.5567 10.6155 18.866 9.69242 19.4845 9.69242C20.1031 9.69242 20.4124 10.6155 20.4124 11.077C20.4124 11.5386 20.1031 12.4617 19.4845 12.4617ZM21.9588 16.6155C21.6495 16.6155 21.0309 16.154 21.0309 15.2309C21.0309 14.3078 21.3402 13.8463 21.9588 13.8463C22.5773 13.8463 22.8866 14.7693 22.8866 15.2309C22.8866 15.6924 22.5773 16.6155 21.9588 16.6155ZM21.9588 8.30781C21.6495 8.30781 21.0309 7.84627 21.0309 6.92319C21.0309 6.00011 21.3402 5.53857 21.9588 5.53857C22.5773 5.53857 22.8866 6.46165 22.8866 6.92319C22.8866 7.38473 22.5773 8.30781 21.9588 8.30781ZM6.80412 9.23088H4.3299V11.5386H6.80412V15.2309H8.35051V11.5386H10.8247V9.23088H8.35051V5.53857H6.80412V9.23088Z" fill="white"/>
</svg>
