<svg width="24" height="24" viewBox="0 0 24 24" fill="none" xmlns="http://www.w3.org/2000/svg">
    <path fill-rule="evenodd" clip-rule="evenodd" d="M10.8 1.2C10.8 0.537258 11.3373 0 12 0C12.6627 0 13.2 0.537259 13.2 1.2V3.6C13.2 3.62848 13.199 3.65672 13.1971 3.6847C14.5685 3.88037 15.8331 4.40728 16.9074 5.18182C16.9574 5.09756 17.0187 5.01811 17.0912 4.94563L18.7882 3.24857C19.2569 2.77994 20.0167 2.77994 20.4853 3.24857C20.9539 3.7172 20.9539 4.477 20.4853 4.94563L18.7882 6.64268C18.7286 6.70231 18.6643 6.75435 18.5964 6.7988C19.4922 7.9333 20.1016 9.30442 20.3154 10.803C20.3433 10.8011 20.3715 10.8001 20.4 10.8001H22.8C23.4627 10.8001 24 11.3374 24 12.0001C24 12.6628 23.4627 13.2001 22.8 13.2001H20.4C20.3715 13.2001 20.3433 13.1991 20.3153 13.1972C20.1215 14.5557 19.6027 15.8094 18.84 16.877L20.4853 18.5223C20.9539 18.9909 20.9539 19.7507 20.4853 20.2193C20.0167 20.688 19.2569 20.688 18.7882 20.2193L17.1812 18.6123C16.0506 19.4994 14.6868 20.1029 13.1971 20.3154C13.199 20.3434 13.2 20.3716 13.2 20.4001V22.8001C13.2 23.4628 12.6627 24.0001 12 24.0001C11.3373 24.0001 10.8 23.4628 10.8 22.8001V20.4001C10.8 20.3716 10.801 20.3434 10.8029 20.3154C9.31311 20.1028 7.9493 19.4994 6.81871 18.6122L5.21176 20.2191C4.74314 20.6878 3.98334 20.6878 3.51471 20.2191C3.04608 19.7505 3.04608 18.9907 3.51471 18.5221L5.15987 16.8769C4.39731 15.8093 3.87848 14.5556 3.68466 13.1972C3.65669 13.1991 3.62846 13.2001 3.6 13.2001H1.2C0.537258 13.2001 0 12.6628 0 12.0001C0 11.3374 0.537258 10.8001 1.2 10.8001H3.6C3.62846 10.8001 3.65668 10.8011 3.68464 10.803C3.89845 9.30448 4.50776 7.9334 5.40348 6.79893C5.33567 6.75449 5.27137 6.70248 5.21178 6.64289L3.51473 4.94583C3.0461 4.4772 3.0461 3.7174 3.51473 3.24877C3.98336 2.78014 4.74315 2.78014 5.21178 3.24877L6.90884 4.94583C6.98128 5.01827 7.04252 5.09767 7.09257 5.18188C8.16682 4.40731 9.43149 3.88038 10.8029 3.6847C10.801 3.65672 10.8 3.62848 10.8 3.6V1.2Z" fill="#FFFBFF"/>
</svg>
